<svg width="24" height="24" viewBox="0 0 24 24" fill="none" xmlns="http://www.w3.org/2000/svg">
<path d="M17.3 5.5C17.1 5.5 16.8 5.6 16.6 5.7C16.4 5.8 16.2 6 16.2 6.2C16.1 6.4 16.1 6.7 16.1 6.9C16.1 7.1 16.3 7.3 16.4 7.5C16.6 7.7 16.8 7.8 17 7.8C17.2 7.8 17.5 7.8 17.7 7.7C17.9 7.6 18.1 7.5 18.2 7.3C18.3 7.1 18.4 6.9 18.4 6.6C18.4 6.3 18.3 6 18 5.8C18 5.6 17.7 5.5 17.3 5.5ZM21.9 7.9C21.9 7.1 21.7 6.2 21.4 5.5C21.1 4.8 20.8 4.2 20.2 3.7C19.7 3.2 19.1 2.8 18.4 2.5C17.6 2.2 16.8 2 16 2C15.1 2 14.7 2 12 2C9.3 2 8.9 2 7.9 2.1C7 2.1 6.2 2.2 5.4 2.5C4.8 2.8 4.2 3.2 3.7 3.7C3.2 4.2 2.8 4.8 2.5 5.4C2.2 6.2 2.1 7 2.1 7.9C2 8.9 2 9.3 2 12C2 14.7 2 15.1 2.1 16.1C2.1 16.9 2.3 17.8 2.6 18.5C2.8 19.2 3.2 19.8 3.8 20.3C4.3 20.8 4.9 21.2 5.6 21.4C6.4 21.7 7.2 21.9 8 21.9C8.9 22 9.3 22 12 22C14.7 22 15.1 22 16.1 21.9C16.9 21.9 17.8 21.7 18.5 21.4C19.2 21.2 19.8 20.8 20.3 20.3C20.8 19.8 21.2 19.2 21.5 18.5C21.8 17.7 21.9 16.9 22 16.1C22 15 22.1 14.7 22.1 12C22.1 9.3 22 8.9 21.9 7.9ZM20.1 16C20.1 16.6 20 17.3 19.8 17.9C19.6 18.3 19.4 18.7 19 19C18.7 19.3 18.3 19.6 17.9 19.8C17.3 20 16.7 20.1 16 20.1C15 20.1 14.6 20.2 12 20.2C9.4 20.2 9 20.2 8 20.1C7.3 20.1 6.7 20 6.1 19.8C5.7 19.6 5.3 19.4 5 19C4.7 18.7 4.4 18.3 4.3 17.9C4 17.3 3.9 16.7 3.9 16C3.9 15 3.8 14.6 3.8 12C3.8 9.4 3.8 9 3.9 8C3.9 7.4 4 6.7 4.3 6.1C4.4 5.7 4.7 5.3 5 5C5.3 4.7 5.7 4.4 6.1 4.2C6.7 4 7.4 3.9 8 3.9C9 3.9 9.4 3.8 12 3.8C14.6 3.8 15 3.8 16 3.9C16.6 3.9 17.3 4 17.9 4.2C18.3 4.4 18.7 4.6 19 5C19.3 5.3 19.6 5.7 19.8 6.1C20 6.7 20.1 7.4 20.1 8C20.2 9 20.2 9.4 20.2 12C20.2 14.6 20.2 15 20.1 16ZM12 6.9C11 6.9 10 7.2 9.2 7.8C8.3 8.3 7.7 9.1 7.3 10C6.9 11 6.8 12 7 13C7.2 14 7.7 14.9 8.4 15.6C9.1 16.3 10 16.8 11 17C12 17.2 13 17.1 14 16.7C14.9 16.3 15.7 15.7 16.3 14.8C16.9 14 17.2 13 17.2 12C17.2 11.3 17.1 10.7 16.8 10C16.5 9.4 16.2 8.8 15.7 8.3C15.2 7.8 14.7 7.4 14 7.2C13.3 7 12.7 6.9 12 6.9ZM12 15.3C11.3 15.3 10.7 15.1 10.1 14.7C9.6 14.3 9.1 13.8 8.9 13.2C8.6 12.6 8.6 11.9 8.7 11.3C8.8 10.7 9.1 10.1 9.6 9.6C10.1 9.1 10.7 8.8 11.3 8.7C11.9 8.6 12.6 8.6 13.2 8.9C13.8 9.2 14.3 9.6 14.7 10.1C15.1 10.6 15.3 11.3 15.3 12C15.3 12.4 15.2 12.9 15 13.3C14.8 13.7 14.6 14.1 14.3 14.4C14 14.7 13.6 15 13.2 15.1C12.9 15.2 12.4 15.3 12 15.3Z" fill="black"/>
</svg>
