<svg width="24" height="24" viewBox="0 0 24 24" fill="none" xmlns="http://www.w3.org/2000/svg">
<path d="M6.4 22.6998H2.6C2 22.6998 1.5 22.1998 1.5 21.5998V9.3998C1.5 8.7998 2 8.2998 2.6 8.2998H6.4C7 8.2998 7.5 8.7998 7.5 9.3998V21.6998C7.5 22.2998 7 22.6998 6.4 22.6998ZM3.1 21.1998H6V9.7998H3.1V21.1998Z" fill="black"/>
<path d="M4.49995 7.8002C2.69995 7.8002 1.19995 6.3002 1.19995 4.5002C1.19995 2.7002 2.69995 1.2002 4.49995 1.2002C6.29995 1.2002 7.79995 2.7002 7.79995 4.5002C7.79995 6.3002 6.29995 7.8002 4.49995 7.8002ZM4.49995 2.8002C3.49995 2.8002 2.69995 3.6002 2.69995 4.6002C2.69995 5.60019 3.49995 6.4002 4.49995 6.4002C5.49995 6.4002 6.29995 5.60019 6.29995 4.6002C6.29995 3.5002 5.49995 2.8002 4.49995 2.8002Z" fill="black"/>
<path d="M21.7 22.8H17.9C17.3 22.8 16.8 22.3 16.8 21.7V15.7C16.8 13.6 16.5 13.5 15.9 13.5C15.3 13.5 14.7 13.5 14.7 15.6V21.7C14.7 22.3 14.2 22.8 13.6 22.8H9.79995C9.19995 22.8 8.69995 22.3 8.69995 21.7V9.4C8.69995 8.8 9.19995 8.3 9.79995 8.3H13.5C13.9 8.3 14.2 8.5 14.4 8.7C15 8.4 15.9 8 17.1 8C22.7 8 22.7 13 22.7 14.9V21.7C22.8 22.3 22.3 22.8 21.7 22.8ZM18.3 21.2H21.2V14.9C21.2 11.6 20.5 9.5 17.1 9.5C15.6 9.5 14.7 10.2 14.3 10.7L13 12.1V9.8H10.2V21.2H13.1V15.6C13.1 14.6 13.1 12 15.8 12C18.2 12 18.2 14.3 18.2 15.7V21.2H18.3Z" fill="black"/>
</svg>
