<svg width="24" height="24" viewBox="0 0 24 24" fill="none" xmlns="http://www.w3.org/2000/svg">
<path d="M19 4H5C4.2 4 3.4 4.3 2.9 4.9C2.4 5.5 2 6.2 2 7V17C2 17.8 2.3 18.6 2.9 19.1C3.4 19.7 4.2 20 5 20H19C19.8 20 20.6 19.7 21.1 19.1C21.7 18.5 22 17.8 22 17V7C22 6.2 21.7 5.4 21.1 4.9C20.6 4.3 19.8 4 19 4ZM5 6H19C19.3 6 19.5 6.1 19.7 6.3C19.9 6.5 20 6.7 20 7L12 11.9L4 7C4 6.7 4.1 6.5 4.3 6.3C4.5 6.1 4.7 6 5 6ZM20 17C20 17.3 19.9 17.5 19.7 17.7C19.5 17.9 19.3 18 19 18H5C4.7 18 4.5 17.9 4.3 17.7C4.1 17.5 4 17.3 4 17V9.3L11.5 13.9C11.7 14 11.8 14 12 14C12.2 14 12.3 14 12.5 13.9L20 9.3V17Z" fill="black"/>
</svg>
