<svg width="24" height="24" viewBox="0 0 24 24" fill="none" xmlns="http://www.w3.org/2000/svg">
<path d="M11 19.8002C6.2 19.8002 2.2 15.9002 2.2 11.0002C2.2 6.2002 6.1 2.2002 11 2.2002C15.8 2.2002 19.8 6.1002 19.8 11.0002C19.8 15.8002 15.8 19.8002 11 19.8002ZM11 3.8002C7 3.8002 3.8 7.0002 3.8 11.0002C3.8 15.0002 7 18.2002 11 18.2002C15 18.2002 18.2 15.0002 18.2 11.0002C18.2 7.0002 15 3.8002 11 3.8002Z" fill="black"/>
<path d="M21.5 22.6998C21.3 22.6998 21.1 22.5998 20.9 22.4998L15.9 17.4998C15.6 17.1998 15.6 16.6998 15.9 16.3998C16.2 16.0998 16.7 16.0998 17 16.3998L22 21.3998C22.3 21.6998 22.3 22.1998 22 22.4998C21.9 22.6998 21.7 22.6998 21.5 22.6998Z" fill="black"/>
</svg>
